<svg width="1100" height="300" viewBox="0 0 1100 300" xmlns="http://www.w3.org/2000/svg" font-family="ui-monospace,'Cascadia Mono','SF Mono',Menlo,Consolas,monospace">
  <rect x="1.5" y="1.5" width="1097" height="297" rx="8" fill="#0d1117" stroke="#30363d" stroke-width="1.5"/>

  <g stroke="#30363d" stroke-width="1.5" fill="none">
    <path d="M18 32V18H32"/><path d="M1068 18H1082V32"/>
    <path d="M18 268V282H32"/><path d="M1082 268V282H1068"/>
  </g>

  <text x="44" y="52" font-size="13" fill="#484f58">SYS.02</text>
  <text x="110" y="52" font-size="20" font-weight="700" letter-spacing="1.5" fill="#e6edf3">PRODUCTION RAG PIPELINE</text>
  <g>
    <rect x="44" y="66" width="290" height="22" rx="4" fill="#071a10" stroke="#238636"/>
    <text x="54" y="81" font-size="12" fill="#3fb950">▶ LIVE DEMO BELOW — WATCH IT RUN</text>
  </g>

  <text x="1056" y="86" text-anchor="end" font-size="58" font-weight="700" fill="#ffa657">1.5–2s</text>
  <text x="1056" y="110" text-anchor="end" font-size="13" fill="#484f58">end-to-end · circuit breakers · retries · load control</text>

  <!-- flow: 7 stages, two sizes -->
  <g font-size="12" fill="#79c0ff" text-anchor="middle">
    <rect x="44"  y="150" width="108" height="46" rx="6" fill="#0d1420" stroke="#1f6feb"/>
    <text x="98"  y="170">OCR</text><text x="98" y="186" fill="#484f58">ingestion</text>

    <rect x="186" y="150" width="128" height="46" rx="6" fill="#0d1420" stroke="#1f6feb"/>
    <text x="250" y="170">CHUNKER</text><text x="250" y="186" fill="#484f58">semantic</text>

    <rect x="348" y="150" width="118" height="46" rx="6" fill="#0d1420" stroke="#1f6feb"/>
    <text x="407" y="170">TEI</text><text x="407" y="186" fill="#484f58">embeddings</text>

    <rect x="500" y="150" width="118" height="46" rx="6" fill="#0d1420" stroke="#1f6feb"/>
    <text x="559" y="170">QDRANT</text><text x="559" y="186" fill="#484f58">vector search</text>

    <rect x="652" y="150" width="148" height="46" rx="6" fill="#0d1420" stroke="#1f6feb"/>
    <text x="726" y="170">RERANKER</text><text x="726" y="186" fill="#484f58">cross-encoder</text>

    <rect x="834" y="150" width="118" height="46" rx="6" fill="#0d1420" stroke="#1f6feb"/>
    <text x="893" y="170">LLAMA 3</text><text x="893" y="186" fill="#484f58">generation</text>

    <rect x="986" y="150" width="70" height="46" rx="6" fill="#160f00" stroke="#9e6a03"/>
    <text x="1021" y="176" fill="#d29922">ANS</text>
  </g>

  <g stroke="#30363d" stroke-width="1.5">
    <line x1="152" y1="173" x2="186" y2="173"/><line x1="314" y1="173" x2="348" y2="173"/>
    <line x1="466" y1="173" x2="500" y2="173"/><line x1="618" y1="173" x2="652" y2="173"/>
    <line x1="800" y1="173" x2="834" y2="173"/><line x1="952" y1="173" x2="986" y2="173"/>
  </g>
  <g fill="#30363d">
    <path d="M180 169l8 4-8 4z"/><path d="M342 169l8 4-8 4z"/><path d="M494 169l8 4-8 4z"/>
    <path d="M646 169l8 4-8 4z"/><path d="M828 169l8 4-8 4z"/><path d="M980 169l8 4-8 4z"/>
  </g>

  <text x="550" y="218" text-anchor="middle" font-size="11.5" fill="#484f58">async fan-out: django + celery + redis · distributed workers</text>

  <circle r="3.5" fill="#ffa657">
    <animateMotion path="M44 173 H1056" dur="3.5s" repeatCount="indefinite"/>
    <animate attributeName="opacity" values="0;1;1;0" keyTimes="0;0.05;0.9;1" dur="3.5s" repeatCount="indefinite"/>
  </circle>

  <g font-size="12" fill="#8b949e">
    <text x="44" y="264">django</text><text x="112" y="264">celery</text><text x="170" y="264">redis</text>
    <text x="222" y="264">qdrant</text><text x="286" y="264">llama-3</text><text x="356" y="264">next.js</text>
    <text x="424" y="264">typescript</text>
    <text x="1056" y="264" text-anchor="end" fill="#3fb950">● production resilience patterns throughout</text>
  </g>
</svg>
